<?xml version="1.0" encoding="us-ascii" standalone="no"?><svg xmlns="http://www.w3.org/2000/svg" xmlns:xlink="http://www.w3.org/1999/xlink" contentStyleType="text/css" height="617.7083px" preserveAspectRatio="none" style="width:730px;height:617px;" version="1.1" viewBox="0 0 730 617" width="730.2083px" zoomAndPan="magnify"><defs><linearGradient id="g1pvsxzf8gkn040" x1="50%" x2="50%" y1="0%" y2="100%"><stop offset="0%" stop-color="#EDF0F2"/><stop offset="100%" stop-color="#E9ECEF"/></linearGradient><linearGradient id="g1pvsxzf8gkn041" x1="50%" x2="50%" y1="0%" y2="100%"><stop offset="0%" stop-color="#59B6EC"/><stop offset="100%" stop-color="#2FA4E7"/></linearGradient><linearGradient id="g1pvsxzf8gkn042" x1="50%" x2="50%" y1="0%" y2="100%"><stop offset="0%" stop-color="#F2FCFE"/><stop offset="100%" stop-color="#EEEEEE"/></linearGradient></defs><g><rect fill="url(#g1pvsxzf8gkn040)" height="47.168" id="_title" rx="4.1667" ry="4.1667" style="stroke:#BABDBF;stroke-width:1.0416666666666667;" width="513.5417" x="103.9567" y="20.8333"/><text fill="#2FA4E7" font-family="Verdana" font-size="20.8333" font-weight="bold" lengthAdjust="spacing" textLength="490.625" x="115.415" y="51.6296">Host creates and connects to whiteboard</text><!--entity host--><g id="elem_host"><ellipse cx="347.7407" cy="94.043" fill="url(#g1pvsxzf8gkn041)" rx="8.3333" ry="8.3333" style="stroke:#2FA4E7;stroke-width:1.0416666666666667;"/><path d="M347.7407,102.3763 L347.7407,130.5013 M334.199,110.7096 L361.2823,110.7096 M347.7407,130.5013 L334.199,146.1263 M347.7407,130.5013 L361.2823,146.1263 " fill="none" style="stroke:#2FA4E7;stroke-width:1.0416666666666667;"/><text fill="#343A40" font-family="Verdana" font-size="12.5" lengthAdjust="spacing" textLength="30.2083" x="332.6365" y="165.0208">Host</text></g><g id="elem_server"><ellipse cx="347.6232" cy="287.5611" fill="url(#g1pvsxzf8gkn041)" rx="98.3201" ry="22.164" style="stroke:#2FA4E7;stroke-width:2.0833333333333335;"/><text fill="#FFFFFF" font-family="Verdana" font-size="12.5" lengthAdjust="spacing" textLength="120.8333" x="287.2066" y="289.8052">Whiteboard Server</text></g><!--entity provider--><g id="elem_provider"><path d="M29.478,413.8069 C34.0306,403.6553 43.6072,400.4185 51.3759,410.2896 C58.4288,397.719 68.5713,397.2077 78.1012,407.3787 C84.5843,396.9668 92.0098,396.5468 100.029,405.653 C106.2523,394.6295 117.7572,394.3413 124.0792,405.5463 C132.2408,392.4048 140.8641,393.0114 150.8816,403.4356 C155.7371,391.0916 168.1214,391.2679 175.3447,400.7862 C181.1392,390.8874 191.2437,388.3307 198.3714,399.3161 C208.3485,387.481 216.3151,389.8927 223.9947,401.7961 C231.6543,391.4805 241.6847,391.2722 247.0456,404.0869 C254.3072,393.2319 261.3127,394.695 268.511,404.1537 C278.5439,393.4802 290.9165,393.4038 296.5528,408.8702 C302.9886,398.4679 313.8214,398.0826 319.7547,409.4069 C326.6526,399.4511 333.9871,398.1245 340.9402,409.3517 C350.055,399.5522 358.426,401.1915 365.0581,412.2258 C370.8339,412.1482 373.7895,415.9066 370.5811,421.2983 C376.1441,422.2959 377.8262,425.9961 374.7176,430.7777 C379.8506,435.7498 377.1052,440.6854 371.0706,442.0416 C376.3952,447.6755 375.4199,451.2477 368.1254,453.6914 C361.1447,466.5505 351.8649,464.9025 343.5663,455.121 C337.4265,465.4912 326.8937,466.4188 320.5039,455.3904 C313.1077,469.9908 300.3849,466.4666 293.4365,454.9268 C285.7004,465.2627 274.5005,466.1433 268.6158,452.9721 C263.7796,463.9461 252.6628,465.6448 245.2713,455.8433 C239.0631,464.7254 229.2813,465.1476 223.7613,455.0629 C215.1624,466.7284 206.4575,468.9151 197.5504,455.3836 C190.4355,466.4659 180.5178,468.1467 173.3795,455.4074 C166.7283,465.8989 157.0507,467.498 149.602,456.2809 C141.5433,468.4622 130.9111,463.5993 125.7959,453.1803 C120.0874,466.7505 107.9009,465.7173 100.5975,454.823 C93.7693,465.6489 86.458,467.005 78.7955,455.6427 C71.7555,467.5143 60.5547,467.1066 53.9408,455.1974 C44.9234,467.1186 31.5462,466.2611 27.1845,450.6697 C21.8226,449.2755 19.841,445.9922 23.8568,441.276 C18.6028,439.5963 16.6667,434.7512 21.5296,430.8197 C17.8703,425.3054 20.1813,422.7064 25.6261,420.9838 C23.6379,417.4412 25.0192,413.8894 29.478,413.8069 " fill="url(#g1pvsxzf8gkn042)" style="stroke:#F2FCFE;stroke-width:1.0416666666666667;"/><text fill="#2FA4E7" font-family="Verdana" font-size="12.5" lengthAdjust="spacing" textLength="313.5417" x="38.8865" y="434.8124">Whiteboard Provider (Collaboard/Conceptboard)</text></g><g id="elem_conference"><ellipse cx="601.0041" cy="287.9248" fill="url(#g1pvsxzf8gkn041)" rx="118.3676" ry="26.1735" style="stroke:#2FA4E7;stroke-width:2.0833333333333335;"/><text fill="#FFFFFF" font-family="Verdana" font-size="12.5" lengthAdjust="spacing" textLength="170.8333" x="515.5874" y="290.1689">Infinity Conferencing Node</text></g><g id="elem_management"><ellipse cx="564.6291" cy="430.5457" fill="url(#g1pvsxzf8gkn041)" rx="117.9301" ry="26.086" style="stroke:#2FA4E7;stroke-width:2.0833333333333335;"/><text fill="#FFFFFF" font-family="Verdana" font-size="12.5" lengthAdjust="spacing" textLength="169.7917" x="479.7333" y="432.7897">Infinity Management Node</text></g><!--link host to conference--><g id="link_host_conference"><path d="M368.4594,142.8138 C410.8448,169.0638 502.7396,225.9815 557.0521,259.6169 " fill="none" id="host-to-conference" style="stroke:#2FA4E7;stroke-width:3.125;"/><polygon fill="#2FA4E7" points="562.3657,262.9076,556.5891,254.4292,557.9377,260.1653,552.2015,261.5139,562.3657,262.9076" style="stroke:#2FA4E7;stroke-width:3.125;"/><text fill="#343A40" font-family="Verdana" font-size="12.5" lengthAdjust="spacing" textLength="51.0417" x="511.2823" y="222.3124">1. https</text></g><!--link host to server--><g id="link_host_server"><path d="M347.7407,179.4805 C347.7407,209.3971 347.7407,235.4076 347.7407,259.0013 " fill="none" id="host-server" style="stroke:#2FA4E7;stroke-width:3.125;"/><polygon fill="#2FA4E7" points="347.7407,173.2305,343.574,182.6055,347.7407,178.4388,351.9073,182.6055,347.7407,173.2305" style="stroke:#2FA4E7;stroke-width:3.125;"/><polygon fill="#2FA4E7" points="347.7407,265.2513,351.9073,255.8763,347.7407,260.043,343.574,255.8763,347.7407,265.2513" style="stroke:#2FA4E7;stroke-width:3.125;"/><text fill="#343A40" font-family="Verdana" font-size="12.5" lengthAdjust="spacing" textLength="82.2917" x="353.9907" y="222.3124">2 and 5. wss</text></g><!--link server to management--><g id="link_server_management"><path d="M379.2407,309.2826 C418.6782,334.8763 480.863,375.2336 522.5505,402.2961 " fill="none" id="server-to-management" style="stroke:#2FA4E7;stroke-width:3.125;"/><polygon fill="#2FA4E7" points="527.7928,405.6992,522.1982,397.0997,523.4242,402.8633,517.6606,404.0893,527.7928,405.6992" style="stroke:#2FA4E7;stroke-width:3.125;"/><text fill="#343A40" font-family="Verdana" font-size="12.5" lengthAdjust="spacing" textLength="51.0417" x="475.8657" y="362.9374">3. https</text></g><!--link server to provider--><g id="link_server_provider"><path d="M324.9698,309.8867 C298.3761,334.4805 258.8816,370.9977 229.7046,397.9769 " fill="none" id="server-to-provider" style="stroke:#2FA4E7;stroke-width:3.125;"/><polygon fill="#2FA4E7" points="225.1157,402.2201,234.8278,398.9145,228.9397,398.6841,229.1702,392.796,225.1157,402.2201" style="stroke:#2FA4E7;stroke-width:3.125;"/><text fill="#343A40" font-family="Verdana" font-size="12.5" lengthAdjust="spacing" textLength="51.0417" x="292.5323" y="362.9374">4. https</text></g><!--link host to provider--><g id="link_host_provider"><path d="M327.1365,137.6263 C287.5115,153.6055 201.5636,194.6992 167.5323,261.7513 C144.4178,307.293 162.7521,362.2086 178.7834,396.6982 " fill="none" id="host-to-provider" style="stroke:#2FA4E7;stroke-width:3.125;"/><polygon fill="#2FA4E7" points="181.4178,402.3659,181.2446,392.1081,179.2224,397.6428,173.6877,395.6207,181.4178,402.3659" style="stroke:#2FA4E7;stroke-width:3.125;"/><text fill="#343A40" font-family="Verdana" font-size="12.5" lengthAdjust="spacing" textLength="51.0417" x="173.7823" y="292.6249">6. https</text></g><!--link conference to management--><g id="link_conference_management"><path d="M594.3448,313.9805 C587.7511,339.418 579.1855,372.4829 572.5605,398.0142 " fill="none" id="conference-to-management" style="stroke:#2FA4E7;stroke-width:3.125;"/><polygon fill="#2FA4E7" points="570.9907,404.0638,577.3785,396.0359,572.2988,399.0224,569.3123,393.9428,570.9907,404.0638" style="stroke:#2FA4E7;stroke-width:3.125;"/><text fill="#343A40" font-family="Verdana" font-size="12.5" lengthAdjust="spacing" textLength="35.4167" x="592.5323" y="362.9374">IPSec</text></g><text fill="#808080" font-family="Verdana" font-size="10.4167" lengthAdjust="spacing" textLength="127.0833" x="297.1858" y="507.7848">Notes about the process:</text><text fill="#808080" font-family="Verdana" font-size="10.4167" lengthAdjust="spacing" textLength="262.5" x="229.4775" y="519.9104">1. User connects the WebApp 3 URL with the plugin.</text><text fill="#808080" font-family="Verdana" font-size="10.4167" lengthAdjust="spacing" textLength="351.0417" x="185.2067" y="532.0361">2. The plugin establish a websocket and share a command "CREATE".</text><text fill="#808080" font-family="Verdana" font-size="10.4167" lengthAdjust="spacing" textLength="545.8333" x="87.8108" y="544.1617">3. The Whiteboard check that the participantUuid exists, it is from a user in the conference and has host role.</text><text fill="#808080" font-family="Verdana" font-size="10.4167" lengthAdjust="spacing" textLength="381.25" x="170.1025" y="556.2874">4. Make requests to the provider to create the whiteboard and create a link.</text><text fill="#808080" font-family="Verdana" font-size="10.4167" lengthAdjust="spacing" textLength="343.75" x="188.8525" y="568.413">5. Share the link with the host and other users through a websocket.</text><text fill="#808080" font-family="Verdana" font-size="10.4167" lengthAdjust="spacing" textLength="447.9167" x="136.7692" y="580.5387">6. The plugin open a new pop-up window with the web app from the whiteboard provider.</text><!--SRC=[RLF1Rjim3BthAxXSjW6BXpLR3y4me0XQhC1Q54s3dXMPYONOeYRHzVBte-GaThRSJ3u-akzHViSLDWW6GrkZTah5dNLU1zt07H5Zk2F72wefm3Re_KLuoViQeSODAyMMvVidHGOJK3D6qAu4GywXuGXCq5MMSKqwb4ffmz9vakede2DKyg7QY4P7XCdhgHAM6Dumv9gOFvMfgItFQfu2lTaI0toGXMkTavyNv0nwpi77pFU7ic7ElTjOPtaFKhp1WCvOjuL7AZ4Jp36B5oWFskcjMEXu83Idd5BlnsQ0k3tMd-J2TFfZD68ENmgec7tiqUy9xYNFuIgR-Qs0BaRL9pDz63Y7sP4-me-Iv_3rhFavTdt4Xct-wtx_j4IZr2OVNprIFl2QMixIf9V16ETADAna_kZkWhxY-iPxcC7g-HTqbgkUKxTRwmfrLS3BAGIChDUrZHLew70ToUoGi_fOwO2IDTGqAPuidczlNcudXPhr7KOlmbHeTZ957zRJWQsnNZjUjRO4_6CZnqzW6Mo4JQ16-hPfRzaW4KP6f57LuOL2e1eB9Lu-w1r2mD-jx9iVzy65_XrAVF7k_I_H8nfgwtQ5agCkix9KcbA3Gtbaef148I-O30tKRi_iATJrcOVaqGdki0DFVjfwQUbAweREGWKj9ydI_zdngA9GAACF1_yB]--></g></svg>